<svg xmlns="http://www.w3.org/2000/svg" viewBox="0 0 54.1 61.98"><defs><style>.cls-1{fill:#ffe5aa;}.cls-2,.cls-4,.cls-5{fill:#231f20;}.cls-2,.cls-3,.cls-4{stroke:#231f20;stroke-miterlimit:10;}.cls-3{fill:none;}.cls-4{stroke-width:2px;}</style></defs><g id="Layer_2" data-name="Layer 2"><g id="Layer_1-2" data-name="Layer 1"><circle class="cls-1" cx="27.05" cy="34.93" r="27.05"/><line class="cls-2" x1="26.87" y1="33.95" x2="26.87" y2="40"/><line class="cls-2" x1="26.92" y1="39.53" x2="23.82" y2="39.53"/><path class="cls-3" d="M19,46.66c-.38,4.7,2.11,6.72,4.41,5.92s4.54-4.79,4.7-5.1"/><line class="cls-4" x1="29.67" y1="8.68" x2="7" y2="4.73"/><line class="cls-4" x1="32.41" y1="8.72" x2="5.34" y2="7.95"/><line class="cls-4" x1="32.41" y1="8.72" x2="9.63" y2="0.95"/><rect class="cls-5" x="16.58" y="21.63" width="0.38" height="6.45" transform="translate(-12.66 19.14) rotate(-45)"/><rect class="cls-5" x="16.58" y="21.63" width="0.38" height="6.45" transform="translate(11.06 54.3) rotate(-135)"/><rect class="cls-5" x="36.93" y="21.63" width="0.38" height="6.45" transform="translate(-6.7 33.53) rotate(-45)"/><rect class="cls-5" x="36.93" y="21.63" width="0.38" height="6.45" transform="translate(45.79 68.68) rotate(-135)"/><rect class="cls-5" x="25.77" y="38.98" width="1.06" height="16.4" transform="translate(-20.88 73.49) rotate(-90)"/></g></g></svg>